<svg xmlns="http://www.w3.org/2000/svg" width="375" viewBox="0 0 375 375" height="375" version="1.0"><defs><clipPath id="a"><path d="M 67 32 L 269 32 L 269 248 L 67 248 Z M 67 32"/></clipPath><clipPath id="b"><path d="M 103.617188 -45.351562 L 374.773438 58.183594 L 271.242188 329.339844 L 0.0859375 225.804688 Z M 103.617188 -45.351562"/></clipPath><clipPath id="c"><path d="M 374.992188 58.269531 L 103.835938 -45.265625 L 0.304688 225.890625 L 271.460938 329.425781 Z M 374.992188 58.269531"/></clipPath><clipPath id="d"><path d="M 172 151 L 263 151 L 263 242 L 172 242 Z M 172 151"/></clipPath><clipPath id="e"><path d="M 103.617188 -45.351562 L 374.773438 58.183594 L 271.242188 329.339844 L 0.0859375 225.804688 Z M 103.617188 -45.351562"/></clipPath><clipPath id="f"><path d="M 374.992188 58.269531 L 103.835938 -45.265625 L 0.304688 225.890625 L 271.460938 329.425781 Z M 374.992188 58.269531"/></clipPath><clipPath id="g"><path d="M 201 53 L 222 53 L 222 187 L 201 187 Z M 201 53"/></clipPath><clipPath id="h"><path d="M 103.617188 -45.351562 L 374.773438 58.183594 L 271.242188 329.339844 L 0.0859375 225.804688 Z M 103.617188 -45.351562"/></clipPath><clipPath id="i"><path d="M 374.992188 58.269531 L 103.835938 -45.265625 L 0.304688 225.890625 L 271.460938 329.425781 Z M 374.992188 58.269531"/></clipPath><clipPath id="j"><path d="M 103 185 L 237 185 L 237 200 L 103 200 Z M 103 185"/></clipPath><clipPath id="k"><path d="M 103.617188 -45.351562 L 374.773438 58.183594 L 271.242188 329.339844 L 0.0859375 225.804688 Z M 103.617188 -45.351562"/></clipPath><clipPath id="l"><path d="M 374.992188 58.269531 L 103.835938 -45.265625 L 0.304688 225.890625 L 271.460938 329.425781 Z M 374.992188 58.269531"/></clipPath><clipPath id="m"><path d="M 173 38 L 240 38 L 240 104 L 173 104 Z M 173 38"/></clipPath><clipPath id="n"><path d="M 103.617188 -45.351562 L 374.773438 58.183594 L 271.242188 329.339844 L 0.0859375 225.804688 Z M 103.617188 -45.351562"/></clipPath><clipPath id="o"><path d="M 374.992188 58.269531 L 103.835938 -45.265625 L 0.304688 225.890625 L 271.460938 329.425781 Z M 374.992188 58.269531"/></clipPath><clipPath id="p"><path d="M 73 156 L 140 156 L 140 222 L 73 222 Z M 73 156"/></clipPath><clipPath id="q"><path d="M 103.617188 -45.351562 L 374.773438 58.183594 L 271.242188 329.339844 L 0.0859375 225.804688 Z M 103.617188 -45.351562"/></clipPath><clipPath id="r"><path d="M 374.992188 58.269531 L 103.835938 -45.265625 L 0.304688 225.890625 L 271.460938 329.425781 Z M 374.992188 58.269531"/></clipPath></defs><path fill="#FFF" d="M-37.5 -37.5H412.5V412.5H-37.5z"/><path fill="#FFF" d="M-37.5 -37.5H412.5V412.5H-37.5z"/><path fill="#2C2C2C" d="M-37.5 -37.5H412.5V412.5H-37.5z"/><g clip-path="url(#a)"><g clip-path="url(#b)"><g clip-path="url(#c)"><path fill="#6CE200" d="M 74.585938 166.300781 C 84.898438 151.957031 103.613281 146.328125 120.097656 152.621094 C 123.226562 153.816406 126.207031 155.429688 128.953125 157.402344 C 137.40625 163.476562 142.984375 172.476562 144.667969 182.75 C 144.800781 183.550781 144.898438 184.347656 144.976562 185.152344 L 166.898438 186.4375 C 168.320312 179.394531 171.21875 172.667969 175.542969 166.664062 C 183.511719 155.574219 195.304688 148.453125 208.078125 146.136719 L 204.082031 110.042969 C 200.167969 109.828125 196.234375 109.011719 192.421875 107.554688 C 189.289062 106.359375 186.308594 104.753906 183.5625 102.777344 C 175.109375 96.707031 169.527344 87.710938 167.851562 77.4375 C 166.171875 67.167969 168.59375 56.859375 174.664062 48.410156 C 184.976562 34.066406 203.6875 28.441406 220.179688 34.738281 C 223.3125 35.933594 226.292969 37.542969 229.039062 39.515625 C 246.480469 52.054688 250.464844 76.445312 237.933594 93.894531 C 232.527344 101.417969 224.804688 106.535156 216.308594 108.792969 L 220.359375 145.414062 C 225.425781 145.734375 230.507812 146.796875 235.429688 148.675781 C 239.550781 150.25 243.472656 152.359375 247.082031 154.957031 C 258.199219 162.953125 265.539062 174.800781 267.75 188.308594 C 269.960938 201.828125 266.777344 215.386719 258.785156 226.503906 C 245.21875 245.378906 220.597656 252.78125 198.902344 244.5 C 194.773438 242.921875 190.855469 240.804688 187.234375 238.210938 C 176.125 230.222656 168.78125 218.378906 166.570312 204.863281 C 166.234375 202.796875 166.039062 200.742188 165.953125 198.6875 L 144.277344 197.417969 C 143.152344 202.527344 140.996094 207.402344 137.851562 211.777344 C 127.542969 226.125 108.828125 231.742188 92.339844 225.449219 C 89.210938 224.253906 86.230469 222.644531 83.484375 220.667969 C 75.03125 214.601562 69.453125 205.59375 67.773438 195.332031 C 66.09375 185.058594 68.515625 174.753906 74.585938 166.300781"/></g></g></g><g clip-path="url(#d)"><g clip-path="url(#e)"><g clip-path="url(#f)"><path fill="#6CE200" d="M 180.53125 170.253906 C 165.984375 190.476562 170.597656 218.675781 190.828125 233.21875 C 211.0625 247.769531 239.253906 243.152344 253.796875 222.917969 C 268.347656 202.6875 263.726562 174.496094 243.496094 159.945312 C 223.265625 145.402344 195.074219 150.019531 180.53125 170.253906"/></g></g></g><g clip-path="url(#g)"><g clip-path="url(#h)"><g clip-path="url(#i)"><path fill="#6CE200" d="M 215.378906 184.121094 L 201.3125 57.113281 C 201.128906 55.425781 202.34375 53.910156 204.027344 53.71875 C 205.71875 53.535156 207.234375 54.75 207.421875 56.4375 L 221.484375 183.441406 C 221.664062 185.128906 220.457031 186.644531 218.769531 186.835938 C 217.078125 187.019531 215.5625 185.804688 215.378906 184.121094"/></g></g></g><g clip-path="url(#j)"><g clip-path="url(#k)"><g clip-path="url(#l)"><path fill="#6CE200" d="M 233.605469 199.574219 L 106.039062 192.097656 C 104.347656 192 103.050781 190.546875 103.15625 188.855469 C 103.253906 187.160156 104.707031 185.867188 106.402344 185.964844 L 233.96875 193.441406 C 235.660156 193.539062 236.957031 194.992188 236.855469 196.6875 C 236.757812 198.378906 235.300781 199.671875 233.605469 199.574219"/></g></g></g><g clip-path="url(#m)"><g clip-path="url(#n)"><g clip-path="url(#o)"><path fill="#6CE200" d="M 179.652344 51.996094 C 169.078125 66.710938 172.425781 87.214844 187.148438 97.789062 C 201.863281 108.371094 222.367188 105.019531 232.949219 90.304688 C 243.519531 75.589844 240.167969 55.085938 225.453125 44.503906 C 210.734375 33.925781 190.230469 37.277344 179.652344 51.996094"/></g></g></g><g clip-path="url(#p)"><g clip-path="url(#q)"><g clip-path="url(#r)"><path fill="#6CE200" d="M 79.574219 169.882812 C 68.992188 184.601562 72.347656 205.105469 87.066406 215.683594 C 101.785156 226.261719 122.285156 222.902344 132.863281 208.191406 C 143.445312 193.476562 140.085938 172.96875 125.371094 162.390625 C 110.652344 151.808594 90.152344 155.167969 79.574219 169.882812"/></g></g></g><g fill="#FFF"><g><g><path d="M 15.082031 11.171875 C 21.886719 11.171875 30.265625 9.140625 30.265625 3.148438 C 30.265625 1.980469 29.910156 1.117188 29.097656 -0.101562 L 30.265625 0 C 30.773438 0 31.28125 -1.421875 31.28125 -2.640625 C 31.28125 -3.808594 30.773438 -5.230469 30.265625 -5.230469 C 27.167969 -5.230469 25.1875 -6.5 21.378906 -7.921875 L 20.007812 -1.675781 C 21.886719 -1.421875 25.796875 -0.507812 25.949219 0.761719 C 26.253906 3.300781 22.597656 4.722656 15.640625 4.722656 C 8.429688 4.722656 5.941406 2.132812 5.941406 -2.03125 C 5.890625 -4.46875 7.464844 -6.09375 9.140625 -7.515625 L 7.921875 -10.308594 C 5.027344 -8.125 2.183594 -4.671875 2.082031 -0.40625 C 1.929688 6.855469 7.058594 11.171875 15.082031 11.171875 Z M 13.710938 18.382812 C 14.929688 18.382812 15.945312 17.671875 16.402344 16.65625 C 16.859375 17.671875 17.925781 18.382812 19.09375 18.382812 C 20.71875 18.382812 22.039062 17.0625 22.039062 15.4375 C 22.039062 13.8125 20.71875 12.492188 19.09375 12.492188 C 17.925781 12.492188 16.859375 13.203125 16.402344 14.269531 C 15.945312 13.203125 14.929688 12.492188 13.710938 12.492188 C 12.085938 12.492188 10.816406 13.8125 10.816406 15.4375 C 10.816406 17.0625 12.085938 18.382812 13.710938 18.382812 Z M 13.710938 18.382812" transform="translate(108.773 293.618)"/></g></g></g><g fill="#FFF"><g><g><path d="M 6.652344 -24.222656 C 8.328125 -24.222656 9.75 -25.644531 9.75 -27.320312 C 9.75 -29.046875 8.328125 -30.46875 6.652344 -30.46875 C 4.925781 -30.46875 3.503906 -29.046875 3.503906 -27.320312 C 3.503906 -25.644531 4.925781 -24.222656 6.652344 -24.222656 Z M 0 0 C 3.757812 0 5.738281 -1.523438 7.820312 -4.0625 C 8.9375 -1.980469 12.1875 0 15.386719 0 C 15.894531 0 16.402344 -1.421875 16.402344 -2.640625 C 16.402344 -3.808594 15.894531 -5.230469 15.386719 -5.230469 C 13.253906 -5.230469 10.359375 -7.566406 10.410156 -12.390625 L 10.460938 -20.058594 L 3.707031 -20.820312 L 4.265625 -10.410156 C 4.417969 -7.007812 1.980469 -5.230469 0 -5.230469 C -0.558594 -5.230469 -1.015625 -3.808594 -1.015625 -2.640625 C -1.015625 -1.421875 -0.507812 0 0 0 Z M 0 0" transform="translate(139.037 293.618)"/></g></g></g><g fill="#FFF"><g><g><path d="M 13.660156 -29.300781 C 15.386719 -29.300781 16.757812 -30.671875 16.757812 -32.398438 C 16.757812 -34.125 15.386719 -35.546875 13.660156 -35.546875 C 11.933594 -35.546875 10.511719 -34.125 10.511719 -32.398438 C 10.511719 -30.671875 11.933594 -29.300781 13.660156 -29.300781 Z M 0 0 C 6.550781 0 9.242188 -0.914062 13.8125 -2.589844 C 17.011719 -1.117188 20.667969 0 26.914062 0 C 27.421875 0 27.929688 -1.421875 27.929688 -2.589844 C 27.929688 -3.859375 27.421875 -5.230469 26.914062 -5.230469 C 23.308594 -5.230469 21.734375 -5.433594 19.550781 -5.941406 L 19.550781 -6.042969 C 22.699219 -8.277344 24.527344 -11.730469 24.527344 -15.945312 C 24.527344 -22.394531 19.703125 -27.523438 13.609375 -27.523438 C 7.515625 -27.523438 2.386719 -22.699219 2.386719 -16.25 C 2.386719 -11.476562 5.179688 -7.820312 7.71875 -6.296875 L 7.71875 -6.144531 C 5.433594 -5.28125 2.894531 -5.230469 0 -5.230469 C -0.507812 -5.230469 -1.015625 -3.859375 -1.015625 -2.640625 C -1.015625 -1.421875 -0.507812 0 0 0 Z M 13.304688 -8.480469 C 9.851562 -8.480469 7.058594 -11.222656 7.058594 -14.675781 C 7.058594 -18.179688 9.851562 -21.023438 13.355469 -21.023438 C 16.757812 -21.023438 19.550781 -18.128906 19.550781 -14.675781 C 19.5 -11.222656 16.757812 -8.480469 13.304688 -8.480469 Z M 13.304688 -8.480469" transform="translate(154.422 293.618)"/></g></g></g><g fill="#FFF"><g><g><path d="M 0 0 C 6.347656 0 11.476562 -1.777344 17.164062 -5.027344 C 20.617188 -2.183594 23.96875 0 29.757812 0 C 30.265625 0 30.773438 -1.421875 30.773438 -2.640625 C 30.773438 -3.808594 30.265625 -5.230469 29.757812 -5.230469 C 26.507812 -5.230469 23.664062 -6.246094 21.175781 -7.820312 C 24.984375 -10.867188 27.675781 -14.777344 27.625 -19.398438 C 27.625 -24.273438 23.511719 -25.492188 19.09375 -25.542969 C 15.082031 -25.59375 6.804688 -24.882812 0.507812 -23.96875 L 2.894531 -17.773438 C 5.738281 -17.671875 8.835938 -13.304688 13 -8.988281 C 8.988281 -6.652344 3.960938 -5.230469 0 -5.230469 C -0.507812 -5.230469 -1.015625 -3.808594 -1.015625 -2.640625 C -1.015625 -1.421875 -0.507812 0 0 0 Z M 16.808594 -11.171875 C 13.8125 -14.015625 12.085938 -17.316406 9.851562 -19.296875 L 17.164062 -20.515625 C 19.957031 -20.921875 21.226562 -20.007812 21.480469 -19.347656 C 23.105469 -15.792969 19.449219 -12.898438 16.808594 -11.171875 Z M 16.808594 -11.171875" transform="translate(181.334 293.618)"/></g></g></g><g fill="#FFF"><g><g><path d="M 0 0 C 3.960938 0 8.785156 -1.726562 10.257812 -4.011719 C 11.476562 -1.777344 13.914062 0 17.417969 0 C 21.023438 0 23.207031 -2.03125 24.730469 -3.960938 C 26 -2.285156 28.234375 0 32.144531 0 C 39 0 42.351562 -5.433594 42.351562 -13.203125 L 42.351562 -24.628906 L 35.597656 -22.140625 L 36.765625 -10.410156 C 37.019531 -7.261719 35.039062 -5.332031 32.296875 -5.332031 C 28.792969 -5.332031 27.21875 -8.582031 27.167969 -12.289062 L 26.8125 -21.328125 L 20.3125 -19.5 L 21.226562 -10.410156 C 21.480469 -7.007812 19.246094 -5.332031 17.113281 -5.332031 C 14.523438 -5.332031 12.441406 -6.703125 12.289062 -11.171875 L 11.933594 -20.871094 L 5.484375 -18.6875 L 6.246094 -10.410156 C 6.550781 -7.058594 3.199219 -5.230469 0 -5.230469 C -0.507812 -5.230469 -1.015625 -3.859375 -1.015625 -2.640625 C -1.015625 -1.421875 -0.507812 0 0 0 Z M 0 0" transform="translate(211.09 293.618)"/></g></g></g><g fill="#FFF"><g><g><path d="M 4.570312 -1.371094 L 7.769531 -8.53125 L 8.734375 -37.832031 L 2.03125 -35.851562 L 3.960938 -1.371094 Z M 4.570312 -1.371094" transform="translate(255.469 293.618)"/></g></g></g><g fill="#FFF"><g><g><path d="M 4.21875 0 L 4.21875 -20.949219 L 1.734375 -20.949219 L 1.734375 0 Z M 4.21875 0" transform="translate(144.48 337.596)"/></g></g></g><g fill="#FFF"><g><g><path d="M 10.984375 -11.582031 L 13.195312 -11.582031 C 12.570312 -14.273438 10.382812 -15.710938 7.152344 -15.710938 C 3.652344 -15.710938 1.375 -14.09375 1.375 -11.460938 C 1.375 -9.277344 2.78125 -8.019531 5.65625 -7.332031 L 8.378906 -6.703125 C 10.113281 -6.285156 11.132812 -5.867188 11.132812 -4.308594 C 11.132812 -2.515625 9.425781 -1.675781 7.300781 -1.675781 C 5.265625 -1.675781 3.53125 -2.394531 3.082031 -4.546875 L 0.839844 -4.546875 C 1.226562 -1.257812 3.832031 0.210938 7.273438 0.210938 C 10.5625 0.210938 13.527344 -1.105469 13.527344 -4.277344 C 13.527344 -7.152344 11.730469 -7.75 8.859375 -8.410156 L 6.34375 -9.007812 C 4.429688 -9.457031 3.652344 -10.144531 3.652344 -11.402344 C 3.652344 -12.808594 4.90625 -13.855469 7.152344 -13.855469 C 9.097656 -13.855469 10.445312 -13.195312 10.984375 -11.582031 Z M 10.984375 -11.582031" transform="translate(150.434 337.596)"/></g></g></g><g fill="#FFF"><g><g><path d="M 11.371094 -11.3125 C 13.554688 -11.941406 14.960938 -13.585938 14.960938 -15.859375 C 14.960938 -18.792969 12.480469 -21.21875 8.410156 -21.21875 C 4.367188 -21.21875 1.796875 -18.851562 1.796875 -14.425781 L 4.039062 -14.425781 C 4.070312 -17.777344 6.015625 -19.121094 8.410156 -19.121094 C 10.894531 -19.121094 12.628906 -17.777344 12.628906 -15.679688 C 12.628906 -13.976562 11.582031 -12.03125 8.019531 -12.03125 L 7.300781 -12.03125 L 7.300781 -10.324219 L 8.019531 -10.324219 C 11.671875 -10.324219 13.675781 -8.648438 13.675781 -6.015625 C 13.675781 -3.261719 11.371094 -1.734375 8.5 -1.734375 C 5.507812 -1.734375 3.410156 -3.5625 3.320312 -6.734375 L 1.046875 -6.734375 C 1.078125 -2.542969 3.832031 0.359375 8.527344 0.359375 C 13.195312 0.359375 16.070312 -2.214844 16.070312 -5.953125 C 16.070312 -9.308594 13.585938 -10.953125 11.371094 -11.3125 Z M 11.371094 -11.3125" transform="translate(164.795 337.596)"/></g></g></g><g fill="#FFF"><g><g><path d="M 1.734375 -21.21875 L 1.734375 -19.003906 L 4.128906 -19.003906 L 4.128906 -21.21875 Z M 1.734375 -15.5625 L 1.734375 0 L 4.128906 0 L 4.128906 -15.5625 Z M 1.734375 -15.5625" transform="translate(182.057 337.596)"/></g></g></g><g fill="#FFF"><g><g><path d="M 7.332031 -19.511719 C 7.960938 -19.511719 8.679688 -19.421875 9.128906 -19.300781 L 9.128906 -21.097656 C 8.558594 -21.304688 7.632812 -21.425781 6.851562 -21.425781 C 4.878906 -21.425781 2.753906 -20.859375 2.753906 -17.175781 L 2.753906 -15.5625 L 0.597656 -15.5625 L 0.597656 -13.644531 L 2.753906 -13.644531 L 2.753906 0 L 5.148438 0 L 5.148438 -13.644531 L 8.949219 -13.644531 L 8.949219 -15.5625 L 5.148438 -15.5625 L 5.148438 -17.148438 C 5.148438 -18.914062 5.835938 -19.511719 7.332031 -19.511719 Z M 7.332031 -19.511719" transform="translate(187.891 337.596)"/></g></g></g><g fill="#FFF"><g><g><path d="M 9.664062 -15.710938 C 6.3125 -15.710938 4.457031 -13.078125 4.128906 -11.941406 L 4.128906 -15.5625 L 1.734375 -15.5625 L 1.734375 0 L 4.128906 0 L 4.128906 -9.636719 C 4.429688 -11.101562 5.925781 -13.675781 8.886719 -13.675781 C 11.25 -13.675781 12.808594 -12.597656 12.808594 -9.335938 L 12.808594 0 L 15.203125 0 L 15.203125 -9.425781 C 15.203125 -14.15625 12.777344 -15.710938 9.664062 -15.710938 Z M 9.664062 -15.710938" transform="translate(197.615 337.596)"/></g></g></g><g fill="#FFF"><g><g><path d="M 12.898438 -15.5625 L 7.988281 -2.753906 L 3.171875 -15.5625 L 0.6875 -15.5625 L 6.613281 -0.75 C 6.851562 -0.148438 6.824219 0.179688 6.492188 1.046875 C 5.804688 2.78125 4.609375 3.859375 2.363281 3.5625 L 2.363281 5.65625 C 5.328125 6.015625 7.183594 4.757812 8.648438 1.136719 L 15.351562 -15.5625 Z M 12.898438 -15.5625" transform="translate(214.518 337.596)"/></g></g></g></svg>